<svg width="158" height="47" viewBox="0 0 158 47" fill="none" xmlns="http://www.w3.org/2000/svg">
<path d="M11.498 46.082C9.87044 46.082 8.38932 45.6914 7.05469 44.9102C5.7526 44.1289 4.62956 43.0547 3.68555 41.6875C2.77409 40.3203 2.07422 38.7253 1.58594 36.9023C1.13021 35.0469 0.934896 33.0775 1 30.9941C1.0651 29.041 1.30924 26.9251 1.73242 24.6465C2.18815 22.3678 2.82292 20.0892 3.63672 17.8105C4.45052 15.4993 5.42708 13.2858 6.56641 11.1699C7.73828 9.02148 9.07292 7.13346 10.5703 5.50586C12.0677 3.87826 13.7279 2.57617 15.5508 1.59961C17.3737 0.590495 19.3757 0.0859375 21.5566 0.0859375C22.8913 0.0859375 24.0143 0.36263 24.9258 0.916016C25.8698 1.43685 26.6185 2.13672 27.1719 3.01562C27.7578 3.89453 28.1647 4.88737 28.3926 5.99414C28.6204 7.10091 28.7181 8.22396 28.6855 9.36328C28.6204 10.4375 28.4577 11.4792 28.1973 12.4883C27.9694 13.4974 27.6276 14.4089 27.1719 15.2227C26.7487 16.0039 26.2116 16.6387 25.5605 17.127C24.9421 17.5827 24.2259 17.8105 23.4121 17.8105C23.0215 17.778 22.6471 17.6478 22.2891 17.4199C21.9635 17.2246 21.6217 16.9316 21.2637 16.541C20.9382 16.1504 20.6289 15.5807 20.3359 14.832C21.2148 14.474 21.8984 13.8555 22.3867 12.9766C22.9076 12.0651 23.2982 11.1211 23.5586 10.1445C23.8516 9.03776 24.0469 7.80078 24.1445 6.43359C24.2096 5.09896 23.9329 4.1224 23.3145 3.50391C22.696 2.88542 21.9961 2.57617 21.2148 2.57617C19.6849 2.57617 18.0736 3.3737 16.3809 4.96875C14.6882 6.5638 13.1094 8.72852 11.6445 11.4629C10.2122 14.1647 8.99154 17.3223 7.98242 20.9355C7.00586 24.5488 6.4362 28.3737 6.27344 32.4102C6.20833 34.2331 6.32227 35.7793 6.61523 37.0488C6.94076 38.3184 7.38021 39.36 7.93359 40.1738C8.51953 40.9876 9.17057 41.5736 9.88672 41.9316C10.6029 42.2897 11.319 42.4688 12.0352 42.4688C13.1745 42.4688 14.2487 42.2246 15.2578 41.7363C16.2669 41.248 17.1784 40.6458 17.9922 39.9297C18.8385 39.2135 19.5547 38.4648 20.1406 37.6836C20.7591 36.9349 21.2311 36.2676 21.5566 35.6816C21.7845 35.2585 22.0286 34.998 22.2891 34.9004C22.5495 34.8027 22.7773 34.8353 22.9727 34.998C23.168 35.1283 23.2982 35.3561 23.3633 35.6816C23.4284 35.9746 23.3633 36.3327 23.168 36.7559C22.6146 37.8626 21.931 38.9694 21.1172 40.0762C20.3359 41.1829 19.4408 42.1758 18.4316 43.0547C17.4551 43.9661 16.3809 44.6986 15.209 45.252C14.0371 45.8053 12.8001 46.082 11.498 46.082ZM42.8945 29.2363C42.569 30.4733 42.1296 31.6289 41.5762 32.7031C41.0228 33.7773 40.3555 34.7051 39.5742 35.4863C38.8255 36.2676 37.9629 36.8698 36.9863 37.293C36.0423 37.7487 35.0007 37.9766 33.8613 37.9766C32.5267 37.9766 31.4688 37.6836 30.6875 37.0977C29.9388 36.5443 29.3691 35.8444 28.9785 34.998C28.6204 34.1517 28.4089 33.224 28.3438 32.2148C28.2461 31.2057 28.1973 30.2617 28.1973 29.3828C28.1973 28.7643 28.2786 28.0807 28.4414 27.332C28.5716 26.5833 28.7669 25.8184 29.0273 25.0371C29.2878 24.2559 29.6133 23.4746 30.0039 22.6934C30.4271 21.9121 30.9154 21.196 31.4688 20.5449C31.6641 19.9915 31.957 19.5033 32.3477 19.0801C32.7708 18.6569 33.2428 18.3151 33.7637 18.0547C34.3171 17.7617 34.903 17.5501 35.5215 17.4199C36.14 17.2572 36.7422 17.1758 37.3281 17.1758C37.4258 17.1758 37.5072 17.1921 37.5723 17.2246C37.6699 17.2572 37.7676 17.2897 37.8652 17.3223C38.2884 17.3548 38.8092 17.5176 39.4277 17.8105C40.0788 18.1035 40.6973 18.543 41.2832 19.1289C41.9017 19.7148 42.4225 20.4635 42.8457 21.375C43.2689 22.2539 43.4805 23.3281 43.4805 24.5977C43.4805 24.8581 43.4642 25.1836 43.4316 25.5742C43.3991 25.9323 43.3665 26.2415 43.334 26.502C44.0827 26.209 44.8639 25.8509 45.6777 25.4277C46.4915 25.0046 47.2728 24.5651 48.0215 24.1094C48.8027 23.6211 49.5189 23.1328 50.1699 22.6445C50.821 22.1562 51.3418 21.7168 51.7324 21.3262C52.0579 21.0332 52.3346 20.8704 52.5625 20.8379C52.7904 20.8053 52.9531 20.8704 53.0508 21.0332C53.1484 21.196 53.1647 21.4238 53.0996 21.7168C53.0345 22.0098 52.8555 22.3353 52.5625 22.6934C52.3997 22.8887 51.9766 23.2793 51.293 23.8652C50.6419 24.4512 49.8607 25.0859 48.9492 25.7695C48.0378 26.4531 47.0449 27.1204 45.9707 27.7715C44.8965 28.4225 43.8711 28.9108 42.8945 29.2363ZM34.6426 21.8145C34.5449 22.1074 34.4961 22.4167 34.4961 22.7422C34.4961 23.263 34.5286 23.8164 34.5938 24.4023C34.6589 24.9557 34.8216 25.4603 35.082 25.916C35.3424 26.3717 35.7493 26.7624 36.3027 27.0879C36.8887 27.3809 37.6862 27.5273 38.6953 27.5273C38.8581 27.5273 39.0208 27.5273 39.1836 27.5273C39.3464 27.4948 39.5091 27.4622 39.6719 27.4297C39.7695 27.0065 39.8509 26.6322 39.916 26.3066C40.0137 25.9486 40.0625 25.6393 40.0625 25.3789C40.1276 24.7604 40.1276 24.1257 40.0625 23.4746C39.9974 22.8236 39.8672 22.2376 39.6719 21.7168C39.5091 21.1634 39.2812 20.724 38.9883 20.3984C38.7279 20.0404 38.4023 19.8613 38.0117 19.8613C37.3932 19.8613 36.791 20.0404 36.2051 20.3984C35.6517 20.724 35.1309 21.196 34.6426 21.8145ZM31.5176 30.4082C31.5176 30.9941 31.5501 31.5801 31.6152 32.166C31.6803 32.7194 31.8105 33.224 32.0059 33.6797C32.2012 34.1029 32.4616 34.4609 32.7871 34.7539C33.1126 35.0143 33.5358 35.1445 34.0566 35.1445C34.6426 35.1445 35.1797 35.0143 35.668 34.7539C36.1562 34.4609 36.5957 34.1029 36.9863 33.6797C37.377 33.224 37.7188 32.7194 38.0117 32.166C38.3372 31.5801 38.6139 30.9779 38.8418 30.3594C38.6139 30.3919 38.3861 30.4245 38.1582 30.457C37.9629 30.457 37.735 30.457 37.4746 30.457C36.2376 30.457 35.1634 30.099 34.252 29.3828C33.373 28.6341 32.6895 27.6901 32.2012 26.5508C32.0059 27.2344 31.8431 27.9017 31.7129 28.5527C31.5827 29.2038 31.5176 29.8223 31.5176 30.4082ZM70.873 34.7539C70.873 34.0703 70.9382 33.2891 71.0684 32.4102C71.2311 31.5312 71.4264 30.6361 71.6543 29.7246C71.8822 28.7806 72.11 27.8691 72.3379 26.9902C72.5658 26.1113 72.7611 25.3301 72.9238 24.6465C73.1191 23.8001 73.1029 23.1491 72.875 22.6934C72.6471 22.2376 72.2565 22.0098 71.7031 22.0098C71.4427 22.0098 70.9219 22.2376 70.1406 22.6934C69.3919 23.1491 68.5618 23.9466 67.6504 25.0859C66.7715 26.1927 65.8926 27.7064 65.0137 29.627C64.1673 31.515 63.5 33.9238 63.0117 36.8535C62.3932 37.179 61.8073 37.3906 61.2539 37.4883C60.9609 37.5534 60.7005 37.6022 60.4727 37.6348C59.8216 37.6673 59.3984 37.5534 59.2031 37.293C59.0078 37.0651 59.0404 36.4792 59.3008 35.5352C59.431 35.0794 59.6589 34.347 59.9844 33.3379C60.3424 32.3288 60.6842 31.2383 61.0098 30.0664C61.3353 28.862 61.612 27.6738 61.8398 26.502C62.1003 25.2975 62.2305 24.2559 62.2305 23.377C62.2305 22.7585 62.1165 22.3353 61.8887 22.1074C61.6934 21.8796 61.4004 21.7656 61.0098 21.7656C60.7168 21.7656 60.2285 21.9284 59.5449 22.2539C58.8613 22.5794 58.0964 23.2142 57.25 24.1582C56.4036 25.1022 55.5573 26.4206 54.7109 28.1133C53.8971 29.7734 53.1973 31.9382 52.6113 34.6074V34.5098C52.5462 34.7702 52.4811 35.0306 52.416 35.291C52.3509 35.5189 52.3021 35.763 52.2695 36.0234C52.237 36.2839 52.1882 36.528 52.123 36.7559L49.6816 37.8301C49.5189 37.8952 49.3073 37.944 49.0469 37.9766C48.819 38.0091 48.5911 37.9603 48.3633 37.8301C48.168 37.7324 48.0215 37.5046 47.9238 37.1465C47.8262 36.7884 47.8587 36.2513 48.0215 35.5352L51.0977 22.791C51.1953 22.3678 51.2767 21.9609 51.3418 21.5703C51.4069 21.2122 51.4395 20.8704 51.4395 20.5449C51.472 20.1868 51.4557 19.8939 51.3906 19.666C51.944 19.4056 52.4323 19.2103 52.8555 19.0801C53.2786 18.9499 53.6204 18.8522 53.8809 18.7871C54.2064 18.6895 54.4831 18.6406 54.7109 18.6406C55.7526 18.6406 56.0944 19.5358 55.7363 21.3262C55.6061 21.847 55.4108 22.612 55.1504 23.6211C55.7689 22.8398 56.4199 22.1074 57.1035 21.4238C57.8197 20.7077 58.5358 20.0729 59.252 19.5195C59.9681 18.9661 60.6842 18.5267 61.4004 18.2012C62.1491 17.8757 62.8815 17.7129 63.5977 17.7129C64.151 17.7129 64.6068 17.8757 64.9648 18.2012C65.3555 18.5267 65.6484 18.9661 65.8438 19.5195C66.0716 20.0404 66.2018 20.6751 66.2344 21.4238C66.2669 22.14 66.2344 22.8887 66.1367 23.6699C66.6576 22.9863 67.2272 22.3027 67.8457 21.6191C68.4967 20.903 69.1641 20.2682 69.8477 19.7148C70.5638 19.1615 71.2962 18.7057 72.0449 18.3477C72.7936 17.9896 73.5423 17.8105 74.291 17.8105C75.1699 17.8105 75.8372 18.071 76.293 18.5918C76.7812 19.1126 77.1068 19.7799 77.2695 20.5938C77.4648 21.4076 77.5137 22.2865 77.416 23.2305C77.3509 24.1745 77.2207 25.0859 77.0254 25.9648L75.3652 32.5566C75.0072 34.1842 75.349 34.998 76.3906 34.998C77.2044 34.998 78.0996 34.6074 79.0762 33.8262C80.0527 33.0449 80.9967 32.1172 81.9082 31.043C82.8522 29.9688 83.7311 28.862 84.5449 27.7227C85.3587 26.5833 86.0423 25.6719 86.5957 24.9883C86.791 24.7604 86.9863 24.6302 87.1816 24.5977C87.4095 24.5651 87.5885 24.6139 87.7188 24.7441C87.8815 24.8418 87.9629 25.0208 87.9629 25.2812C87.9954 25.5417 87.9141 25.8672 87.7188 26.2578C87.0677 27.3971 86.2702 28.6667 85.3262 30.0664C84.3822 31.4336 83.3405 32.7194 82.2012 33.9238C81.0944 35.1283 79.9062 36.1374 78.6367 36.9512C77.3672 37.765 76.0488 38.1719 74.6816 38.1719C74.2259 38.1719 73.7702 38.123 73.3145 38.0254C72.8913 37.9277 72.4844 37.7487 72.0938 37.4883C71.7357 37.2279 71.4427 36.8861 71.2148 36.4629C70.987 36.0072 70.873 35.4375 70.873 34.7539ZM106.127 26.8438C105.15 28.276 104.044 29.6758 102.807 31.043C101.57 32.3776 100.251 33.582 98.8516 34.6562C97.4844 35.6979 96.0684 36.5443 94.6035 37.1953C93.1712 37.8464 91.7715 38.1719 90.4043 38.1719C89.6882 38.1719 88.9069 37.9928 88.0605 37.6348C87.2467 37.3092 86.498 36.7884 85.8145 36.0723C85.1309 35.3561 84.5775 34.4284 84.1543 33.2891C83.7637 32.1497 83.6497 30.7663 83.8125 29.1387C83.9427 27.804 84.3496 26.4043 85.0332 24.9395C85.7493 23.4421 86.612 22.0749 87.6211 20.8379C88.6628 19.6009 89.8184 18.5755 91.0879 17.7617C92.39 16.9479 93.6921 16.541 94.9941 16.541C96.2311 16.541 97.1263 16.8503 97.6797 17.4688C98.2331 18.0872 98.4772 18.8522 98.4121 19.7637C98.3145 20.7728 98.0215 21.7005 97.5332 22.5469C97.0775 23.3932 96.5241 24.1582 95.873 24.8418C95.222 25.5254 94.5221 26.1439 93.7734 26.6973C93.0573 27.2507 92.3737 27.7552 91.7227 28.2109C91.0065 28.6992 90.3229 29.1712 89.6719 29.627C89.0208 30.0501 88.4512 30.4408 87.9629 30.7988C87.9954 31.6126 88.1419 32.2962 88.4023 32.8496C88.6628 33.403 88.9883 33.8587 89.3789 34.2168C89.7695 34.5423 90.209 34.7865 90.6973 34.9492C91.2181 35.0794 91.7389 35.1445 92.2598 35.1445C93.3665 35.1445 94.5221 34.8027 95.7266 34.1191C96.931 33.403 98.1029 32.5566 99.2422 31.5801C100.414 30.571 101.488 29.5293 102.465 28.4551C103.474 27.3809 104.304 26.4531 104.955 25.6719C105.183 25.4115 105.411 25.265 105.639 25.2324C105.899 25.1673 106.094 25.1999 106.225 25.3301C106.387 25.4277 106.469 25.623 106.469 25.916C106.469 26.1764 106.355 26.4857 106.127 26.8438ZM93.627 19.3242C93.2363 19.3242 92.7643 19.5195 92.2109 19.9102C91.6901 20.3008 91.1693 20.8704 90.6484 21.6191C90.1276 22.3353 89.6393 23.2305 89.1836 24.3047C88.7279 25.3464 88.3861 26.5508 88.1582 27.918C88.5488 27.625 88.972 27.332 89.4277 27.0391C89.8835 26.7135 90.3392 26.3717 90.7949 26.0137C92.1947 24.9395 93.1712 23.9954 93.7246 23.1816C94.278 22.3678 94.5872 21.668 94.6523 21.082C94.7174 20.4635 94.6523 20.0241 94.457 19.7637C94.2617 19.4707 93.985 19.3242 93.627 19.3242ZM127.367 8.24023C127.27 8.59831 127.074 8.95638 126.781 9.31445C126.521 9.63997 126.212 9.91667 125.854 10.1445C125.528 10.3398 125.186 10.4701 124.828 10.5352C124.47 10.6003 124.177 10.5352 123.949 10.3398C123.266 9.81901 122.908 9.26562 122.875 8.67969C122.842 8.0612 122.989 7.49154 123.314 6.9707C123.64 6.41732 124.047 5.96159 124.535 5.60352C125.023 5.21289 125.447 4.98503 125.805 4.91992C126.163 4.85482 126.456 4.9362 126.684 5.16406C126.944 5.35938 127.139 5.63607 127.27 5.99414C127.4 6.31966 127.465 6.69401 127.465 7.11719C127.497 7.54036 127.465 7.91471 127.367 8.24023ZM120.629 18.6406C120.792 18.4453 121.101 18.2826 121.557 18.1523C122.012 18.0221 122.484 17.9245 122.973 17.8594C123.461 17.7617 123.9 17.7129 124.291 17.7129C124.714 17.6803 124.958 17.6803 125.023 17.7129C125.056 17.7454 124.975 18.0872 124.779 18.7383C124.584 19.3893 124.34 20.1543 124.047 21.0332C123.754 21.9121 123.445 22.8236 123.119 23.7676C122.794 24.679 122.549 25.4277 122.387 26.0137C122.224 26.5996 122.029 27.2669 121.801 28.0156C121.573 28.7318 121.361 29.4479 121.166 30.1641C121.003 30.8477 120.889 31.4987 120.824 32.1172C120.759 32.7357 120.808 33.2077 120.971 33.5332C121.133 33.9238 121.312 34.2005 121.508 34.3633C121.703 34.4935 121.915 34.5586 122.143 34.5586C122.794 34.5586 123.607 34.2005 124.584 33.4844C125.593 32.7682 126.602 31.9219 127.611 30.9453C128.653 29.9362 129.613 28.9271 130.492 27.918C131.371 26.8763 132.022 26.0462 132.445 25.4277C132.706 25.1022 132.966 24.8906 133.227 24.793C133.52 24.6953 133.747 24.7116 133.91 24.8418C134.105 24.972 134.203 25.1836 134.203 25.4766C134.236 25.7695 134.138 26.1113 133.91 26.502C133.389 27.4134 132.624 28.5039 131.615 29.7734C130.606 31.0104 129.532 32.2148 128.393 33.3867C127.253 34.526 126.13 35.5026 125.023 36.3164C123.949 37.1302 123.07 37.5534 122.387 37.5859C121.833 37.6185 121.28 37.5208 120.727 37.293C120.206 37.0977 119.717 36.821 119.262 36.4629C118.839 36.0723 118.48 35.6328 118.188 35.1445C117.895 34.6237 117.732 34.0866 117.699 33.5332C117.602 32.7194 117.602 31.6126 117.699 30.2129C117.797 28.7806 117.976 27.332 118.236 25.8672C118.497 24.3698 118.822 22.9538 119.213 21.6191C119.636 20.2845 120.108 19.2917 120.629 18.6406ZM144.848 38.2207C144.099 38.2207 143.448 38.0742 142.895 37.7812C142.374 37.5208 141.951 37.1628 141.625 36.707C141.299 36.2513 141.088 35.7305 140.99 35.1445C140.893 34.526 140.925 33.875 141.088 33.1914C141.186 32.7357 141.348 32.1335 141.576 31.3848C141.804 30.6035 142.032 29.7734 142.26 28.8945C142.52 27.9831 142.748 27.0879 142.943 26.209C143.171 25.2975 143.318 24.4837 143.383 23.7676C143.448 23.0189 143.415 22.4167 143.285 21.9609C143.155 21.4727 142.878 21.2285 142.455 21.2285C141.934 21.2285 141.397 21.4076 140.844 21.7656C140.29 22.0911 139.721 22.5469 139.135 23.1328C138.581 23.7188 138.012 24.4023 137.426 25.1836C136.872 25.9323 136.319 26.7135 135.766 27.5273C135.473 28.6341 135.229 29.6107 135.033 30.457C134.838 31.2708 134.659 32.0195 134.496 32.7031C134.366 33.3542 134.236 33.9401 134.105 34.4609C133.975 34.9492 133.861 35.4212 133.764 35.877C133.666 36.2025 133.373 36.528 132.885 36.8535C132.396 37.1465 131.876 37.3906 131.322 37.5859C130.769 37.7812 130.297 37.8789 129.906 37.8789C129.483 37.8789 129.304 37.7324 129.369 37.4395C129.402 37.2441 129.516 36.8047 129.711 36.1211C129.874 35.4375 130.085 34.64 130.346 33.7285C130.574 32.7845 130.818 31.7917 131.078 30.75C131.339 29.7083 131.583 28.7155 131.811 27.7715C131.973 27.0228 132.152 26.1927 132.348 25.2812C132.51 24.5 132.706 23.5885 132.934 22.5469C133.194 21.5052 133.487 20.3659 133.812 19.1289C134.04 18.9336 134.268 18.7871 134.496 18.6895C134.757 18.5592 135.017 18.4616 135.277 18.3965C135.538 18.2988 135.814 18.2337 136.107 18.2012C136.368 18.2012 136.628 18.2174 136.889 18.25C137.117 18.2826 137.344 18.3477 137.572 18.4453C137.833 18.5104 138.061 18.6243 138.256 18.7871C138.158 19.015 138.044 19.3405 137.914 19.7637C137.784 20.1543 137.654 20.5775 137.523 21.0332C137.393 21.554 137.23 22.0911 137.035 22.6445C137.458 22.0586 137.93 21.4727 138.451 20.8867C139.005 20.2682 139.59 19.7148 140.209 19.2266C140.86 18.7383 141.544 18.3477 142.26 18.0547C142.976 17.7292 143.708 17.5664 144.457 17.5664C145.076 17.5664 145.629 17.7454 146.117 18.1035C146.605 18.4616 146.98 18.9661 147.24 19.6172C147.533 20.2357 147.696 20.9844 147.729 21.8633C147.794 22.7422 147.68 23.7025 147.387 24.7441L146.85 26.8926C146.687 27.5762 146.475 28.39 146.215 29.334C145.987 30.2454 145.694 31.2546 145.336 32.3613C145.141 33.0775 145.059 33.696 145.092 34.2168C145.157 34.7376 145.482 34.998 146.068 34.998C146.654 34.998 147.387 34.64 148.266 33.9238C149.177 33.2077 150.089 32.3451 151 31.3359C151.911 30.3268 152.774 29.3014 153.588 28.2598C154.402 27.1855 155.02 26.3229 155.443 25.6719C155.736 25.2487 156.013 24.972 156.273 24.8418C156.534 24.7116 156.729 24.6953 156.859 24.793C157.022 24.8906 157.104 25.1185 157.104 25.4766C157.104 25.8021 156.973 26.2253 156.713 26.7461C156.485 27.2018 156.127 27.804 155.639 28.5527C155.183 29.3014 154.63 30.099 153.979 30.9453C153.327 31.7917 152.628 32.6543 151.879 33.5332C151.13 34.3796 150.349 35.1608 149.535 35.877C148.721 36.5605 147.908 37.1139 147.094 37.5371C146.312 37.9928 145.564 38.2207 144.848 38.2207Z" fill="white"/>
</svg>
