<svg width="120" height="75" viewBox="0 0 120 75" xmlns="http://www.w3.org/2000/svg">
<path fill-rule="evenodd" clip-rule="evenodd" d="M6.89281 53.3353C8.40919 54.2649 10.0919 54.7297 11.9411 54.7297C13.4204 54.7297 14.8258 54.4005 16.1572 53.7421C17.4886 53.0836 18.7091 52.2121 19.8187 51.1276C20.9651 50.0818 21.9821 48.9004 22.8698 47.5835C23.7944 46.2666 24.571 44.9497 25.1998 43.6328C25.4217 43.1292 25.4957 42.7032 25.4217 42.3545C25.3477 41.9672 25.1998 41.6961 24.9779 41.5412C24.756 41.3475 24.4971 41.3088 24.2012 41.4249C23.9053 41.5412 23.6279 41.851 23.3691 42.3545C22.9992 43.0517 22.4629 43.8458 21.7602 44.7367C21.0945 45.6663 20.2809 46.5571 19.3193 47.4092C18.3948 48.2613 17.3592 48.9779 16.2127 49.5589C15.0663 50.1399 13.8458 50.4304 12.5513 50.4304C11.7377 50.4304 10.924 50.2173 10.1104 49.7913C9.2968 49.3652 8.55711 48.668 7.8914 47.6997C7.26269 46.7314 6.76336 45.492 6.39355 43.9813C6.0607 42.4708 5.93126 40.6309 6.00523 38.4619C6.19014 33.659 6.83735 29.1078 7.94686 24.8085C9.09336 20.5091 10.4802 16.752 12.1075 13.5372C13.7718 10.2836 15.5655 7.70788 17.4886 5.80995C19.4118 3.91204 21.2425 2.96308 22.9807 2.96308C23.8683 2.96308 24.6635 3.33104 25.3662 4.06697C26.0688 4.80289 26.3833 5.96488 26.3093 7.55298C26.1983 9.17969 25.9764 10.6516 25.6436 11.9685C25.3477 13.1305 24.9039 14.2538 24.3121 15.3383C23.7574 16.3841 22.9807 17.12 21.9821 17.546C22.315 18.4369 22.6664 19.1147 23.0362 19.5795C23.443 20.0443 23.8314 20.393 24.2012 20.6254C24.608 20.8965 25.0333 21.0514 25.4771 21.0902C26.4017 21.0902 27.2153 20.819 27.918 20.2767C28.6577 19.6958 29.268 18.9404 29.7487 18.0108C30.2665 17.0426 30.6549 15.958 30.9138 14.7572C31.2096 13.5566 31.3945 12.3171 31.4685 11.0389C31.5055 9.68323 31.3945 8.347 31.1357 7.03003C30.8768 5.71312 30.4144 4.53176 29.7487 3.48597C29.12 2.44018 28.2694 1.60742 27.1969 0.987688C26.1614 0.329232 24.8854 0 23.3691 0C20.8912 0 18.6167 0.600361 16.5456 1.80109C14.4745 2.96308 12.5883 4.5124 10.887 6.44905C9.18582 8.38567 7.6695 10.6322 6.33808 13.1886C5.04365 15.7062 3.93414 18.3401 3.00955 21.0902C2.08495 23.8014 1.36377 26.5127 0.845999 29.2241C0.365214 31.9354 0.0878358 34.453 0.0138689 36.777C-0.0600986 39.256 0.161804 41.5993 0.679577 43.8071C1.23433 45.9761 2.02948 47.874 3.06502 49.5008C4.13755 51.1276 5.41348 52.4057 6.89281 53.3353ZM53.1919 52.7559C53.356 52.5371 53.6678 52.3548 54.1273 52.2089C54.5868 52.063 55.0628 51.9536 55.5551 51.8807C56.0475 51.7713 56.4906 51.7165 56.8845 51.7165C57.3112 51.6801 57.5573 51.6801 57.623 51.7165C57.6558 51.753 57.5737 52.1359 57.3768 52.8652C57.1798 53.5946 56.9337 54.4516 56.6383 55.4362C56.3429 56.4208 56.0311 57.4419 55.7028 58.4994C55.3746 59.5205 55.1284 60.3593 54.9643 61.0157C54.8002 61.6721 54.6033 62.4196 54.3735 63.2584C54.1437 64.0606 53.9304 64.8629 53.7334 65.6652C53.5693 66.431 53.4544 67.1603 53.3888 67.8532C53.3232 68.5461 53.3724 69.0748 53.5365 69.4395C53.7006 69.8771 53.8811 70.1871 54.0781 70.3694C54.275 70.5153 54.4884 70.5883 54.7181 70.5883C55.3746 70.5883 56.1952 70.1871 57.1798 69.3848C58.1974 68.5826 59.2149 67.6344 60.2324 66.5404C61.2828 65.4099 62.251 64.2794 63.1373 63.149C63.968 62.0551 64.5969 61.1695 65.0238 60.4921L65.0425 60.3963C65.2098 59.5146 65.4106 58.4859 65.6449 57.3103C65.9126 56.1346 66.2138 54.8488 66.5484 53.4527C66.7827 53.2323 67.0169 53.0669 67.2511 52.9567C67.5189 52.8098 67.7866 52.6995 68.0543 52.6261C68.322 52.5158 68.6064 52.4424 68.9077 52.4057C69.1753 52.4057 69.4431 52.424 69.7108 52.4607C69.945 52.4975 70.1792 52.5709 70.4135 52.6812C70.6812 52.7547 70.9155 52.8833 71.1162 53.0669C71.0158 53.3241 70.8987 53.6915 70.7649 54.1691C70.631 54.61 70.4971 55.0876 70.3633 55.6019C70.2294 56.1898 70.0621 56.7959 69.8613 57.4204C70.2964 56.7592 70.7816 56.0979 71.317 55.4366C71.8859 54.7386 72.4883 54.114 73.124 53.5629C73.7933 53.0118 74.4961 52.5709 75.2323 52.2403C75.9685 51.8729 76.7214 51.6892 77.4911 51.6892C78.1269 51.6892 78.6958 51.8913 79.1978 52.2954C79.6997 52.6995 80.0846 53.269 80.3522 54.0038C80.6534 54.7018 80.8207 55.5468 80.8542 56.5387C80.9212 57.5307 80.804 58.6145 80.5028 59.7901L79.9507 62.2149C79.7834 62.9864 79.5659 63.9049 79.2981 64.9703C79.0639 65.999 78.7627 67.1379 78.3946 68.387C78.1939 69.1953 78.1102 69.8933 78.1437 70.4812C78.2106 71.069 78.5452 71.3629 79.1475 71.3629C79.7499 71.3629 80.5028 70.9588 81.4064 70.1505C82.3434 69.3422 83.2803 68.3687 84.2173 67.2298C85.1543 66.0908 86.0411 64.9336 86.8777 63.7579C87.7143 62.5456 88.3501 61.572 88.7851 60.8372C89.0863 60.3596 89.3708 60.0473 89.6385 59.9004C89.9062 59.7534 90.1069 59.735 90.2408 59.8453C90.4081 59.9555 90.4918 60.2126 90.4918 60.6168C90.4918 60.9841 90.358 61.4617 90.0902 62.0496C89.856 62.5639 89.4879 63.2436 88.986 64.0886C88.5174 64.9336 87.9486 65.8337 87.2793 66.7889C86.61 67.7441 85.8905 68.7177 85.1208 69.7096C84.3512 70.6648 83.548 71.5466 82.7114 72.3548C81.8748 73.1264 81.0383 73.7509 80.2017 74.2285C79.3986 74.7428 78.6289 75 77.8926 75C77.123 75 76.4537 74.8347 75.8848 74.504C75.3494 74.2101 74.9144 73.806 74.5798 73.2916C74.2451 72.7773 74.0276 72.1895 73.9272 71.5282C73.8268 70.8302 73.8603 70.0954 74.0276 69.3238C74.128 68.8095 74.2953 68.1298 74.5296 67.2848C74.7638 66.4031 74.998 65.4663 75.2323 64.4743C75.5 63.4456 75.7343 62.4353 75.935 61.4434C76.1693 60.4147 76.3199 59.4963 76.3868 58.688C76.4537 57.843 76.4203 57.1633 76.2864 56.649C76.1525 56.0979 75.8681 55.8223 75.4331 55.8223C74.8977 55.8223 74.3455 56.0244 73.7766 56.4285C73.2078 56.7959 72.6221 57.3103 72.0198 57.9716C71.4509 58.6329 70.8652 59.4044 70.2629 60.2861C69.694 61.1311 69.1251 62.0129 68.5563 62.9313C68.2551 64.1804 68.0041 65.2826 67.8033 66.2378C67.6025 67.1562 67.4184 68.0012 67.2511 68.7728C67.1173 69.5076 66.9835 70.1689 66.8496 70.7567C66.7157 71.3078 66.5986 71.8405 66.4983 72.3548C66.3978 72.7222 66.0967 73.0896 65.5947 73.457C65.0927 73.7877 64.5573 74.0632 63.9884 74.2836C63.4196 74.504 62.9343 74.6142 62.5328 74.6142C62.0977 74.6142 61.9137 74.449 61.9806 74.1183C62.0141 73.8978 62.1312 73.4019 62.332 72.6304C62.4993 71.8588 62.7168 70.9588 62.9845 69.93C63.2188 68.8646 63.4697 67.7441 63.7375 66.5685C63.8064 66.2656 63.8743 65.9663 63.941 65.6708C63.0198 66.9014 62.0461 68.103 61.0202 69.2754C59.8714 70.5518 58.739 71.6458 57.623 72.5574C56.5398 73.4691 55.6536 73.9432 54.9643 73.9796C54.4063 74.0161 53.8483 73.9067 53.2903 73.6515C52.7652 73.4326 52.2728 73.1226 51.8133 72.7215C51.3866 72.2839 51.0255 71.7916 50.7301 71.2446C50.4347 70.6611 50.2706 70.0594 50.2378 69.4395C50.1393 68.5278 50.1393 67.288 50.2378 65.7199C50.3363 64.1154 50.5168 62.4925 50.7794 60.8515C51.042 59.1741 51.3702 57.5877 51.7641 56.0926C52.1908 54.5975 52.6667 53.4852 53.1919 52.7559ZM38.5146 25.6348C38.412 25.9834 38.3607 26.3514 38.3607 26.7387C38.3607 27.3584 38.3949 28.0168 38.4633 28.7141C38.5317 29.3725 38.7028 29.9729 38.9765 30.5151C39.2502 31.0574 39.6778 31.5222 40.2594 31.9095C40.8753 32.2581 41.7135 32.4324 42.774 32.4324H43.2873L43.8004 32.3162C43.9031 31.8127 43.9886 31.3673 44.0571 30.9799C44.1597 30.5539 44.211 30.1859 44.211 29.876C44.2794 29.1401 44.2794 28.3848 44.211 27.6102C44.1426 26.8355 44.0057 26.1383 43.8004 25.5186C43.6294 24.8602 43.3899 24.3372 43.082 23.9499C42.8083 23.5239 42.4662 23.3108 42.0556 23.3108C41.4056 23.3108 40.7727 23.5239 40.1568 23.9499C39.5752 24.3372 39.0278 24.8988 38.5146 25.6348ZM34.5311 38.0413C34.4611 37.3503 34.4262 36.6593 34.4262 35.9682C34.4262 35.2772 34.4961 34.5478 34.6361 33.78C34.7759 33.0122 34.9508 32.2252 35.1606 31.4189C35.6852 32.7627 36.4196 33.876 37.3639 34.7589C38.3432 35.6035 39.4972 36.0258 40.8262 36.0258H41.5607L42.2951 35.9107C42.0503 36.6401 41.753 37.3503 41.4033 38.0413C41.0885 38.694 40.7213 39.289 40.3017 39.8265C39.882 40.3256 39.4098 40.7479 38.8852 41.0934C38.3606 41.4005 37.7836 41.5541 37.1541 41.5541C36.5945 41.5541 36.1398 41.4005 35.7901 41.0934C35.4404 40.7479 35.1606 40.3256 34.9508 39.8265C34.7409 39.289 34.6011 38.694 34.5311 38.0413ZM105.12 22.2973C104.708 22.2973 104.209 22.5276 103.625 22.9883C103.075 23.4489 102.525 24.1208 101.974 25.0038C101.424 25.8484 100.909 26.9042 100.428 28.171C99.9463 29.3996 99.5852 30.82 99.3443 32.4324C99.7569 32.0869 100.204 31.7413 100.685 31.3958C101.166 31.012 101.648 30.6088 102.129 30.1866C103.607 28.9196 104.639 27.8063 105.223 26.8465C105.808 25.8868 106.135 25.0614 106.204 24.3703C106.272 23.641 106.204 23.1226 105.997 22.8156C105.791 22.47 105.499 22.2973 105.12 22.2973ZM115.721 36.9235C117.166 35.2579 118.46 33.5527 119.601 31.8079C119.867 31.3717 120 30.9949 120 30.6777C120 30.3208 119.905 30.0828 119.714 29.9638C119.563 29.8052 119.334 29.7656 119.03 29.8449C118.764 29.8846 118.498 30.063 118.231 30.3802C117.47 31.332 116.5 32.4622 115.322 33.7708C114.18 35.0795 112.925 36.3484 111.555 37.5778C110.225 38.7674 108.856 39.7985 107.447 40.6709C106.04 41.5037 104.69 41.9201 103.397 41.9201C102.788 41.9201 102.18 41.8408 101.571 41.6822C101 41.4839 100.487 41.1865 100.03 40.7899C99.5741 40.3537 99.1936 39.7985 98.8897 39.1244C98.5852 38.4503 98.4143 37.6174 98.3763 36.626C98.9467 36.1898 99.612 35.714 100.373 35.1984C101.134 34.6433 101.932 34.0683 102.769 33.4734C103.53 32.9182 104.329 32.3035 105.165 31.6294C106.04 30.9553 106.858 30.2018 107.619 29.369C108.379 28.5362 109.026 27.6044 109.559 26.5733C110.129 25.5422 110.472 24.4121 110.586 23.1827C110.662 22.0723 110.377 21.1404 109.73 20.387C109.083 19.6335 108.038 19.2568 106.592 19.2568C105.07 19.2568 103.549 19.7525 102.028 20.7439C100.544 21.7352 99.1936 22.9845 97.9769 24.4913C96.7974 25.9983 95.7896 27.6638 94.9527 29.488C94.1537 31.2725 93.6783 32.9777 93.5264 34.6036C93.5242 34.626 93.5221 34.6483 93.5201 34.6706C93.5187 34.6857 93.5173 34.7008 93.5159 34.7159C92.996 35.5266 92.3431 36.4952 91.8078 37.1324C90.772 38.4095 89.6985 39.5125 88.5888 40.4414C87.4784 41.3702 86.461 41.8347 85.536 41.8347C84.3517 41.8347 83.9631 40.8671 84.3701 38.932L86.2578 31.0948C86.4795 30.0498 86.6272 28.9662 86.7018 27.8439C86.8127 26.7214 86.7573 25.6765 86.5349 24.7089C86.3502 23.7414 85.98 22.948 85.4252 22.3288C84.9072 21.7095 84.1485 21.3999 83.1496 21.3999C82.2985 21.3999 81.4474 21.6127 80.5962 22.0385C79.7451 22.4642 78.9125 23.006 78.0983 23.664C77.3211 24.3219 76.563 25.0766 75.8227 25.928C75.1194 26.7408 74.4722 27.5535 73.8804 28.3663C73.9912 27.4375 74.0281 26.5473 73.9912 25.6958C73.9542 24.8057 73.8065 24.051 73.5472 23.4317C73.3248 22.7738 72.9923 22.2514 72.5483 21.8644C72.1412 21.4773 71.6233 21.2838 70.9938 21.2838C70.1799 21.2838 69.3473 21.4773 68.4963 21.8644C67.6822 22.2514 66.8681 22.7738 66.0541 23.4317C65.24 24.0897 64.426 24.8444 63.6119 25.6958C62.8349 26.5086 62.0948 27.3794 61.3918 28.3083C61.6878 27.1085 61.9098 26.199 62.0578 25.5798C62.4649 23.4511 62.0763 22.3868 60.8922 22.3868C60.6332 22.3868 60.3187 22.4448 59.9487 22.561C59.6526 22.6383 59.2641 22.7545 58.7831 22.9093C58.302 23.0641 57.747 23.2963 57.1179 23.6059C57.192 23.8768 57.2104 24.2252 57.1735 24.6509C57.1735 25.0379 57.1365 25.4443 57.0625 25.87L57.0504 25.9454C57.007 26.2186 56.9735 26.4294 56.9125 26.7319C56.8374 26.7912 56.7539 26.8572 56.6602 26.9319C55.914 27.5267 55.0932 28.1215 54.1977 28.7162C53.3396 29.2714 52.4441 29.8067 51.5113 30.3222C50.5785 30.8377 49.6831 31.2738 48.8249 31.6307C48.8623 31.3135 48.8996 30.9368 48.9369 30.5006C48.9742 30.0248 48.9929 29.6282 48.9929 29.311C48.9929 27.7646 48.7503 26.456 48.2653 25.3855C47.7803 24.2752 47.1832 23.3632 46.4744 22.6494C45.8028 21.9357 45.0939 21.4004 44.3476 21.0435C43.6387 20.6866 43.0418 20.4884 42.5567 20.4487L42.2209 20.3298C42.1463 20.2901 42.053 20.2703 41.9411 20.2703C41.2695 20.2703 40.5792 20.3695 39.8703 20.5677C39.1614 20.7263 38.4898 20.9841 37.8555 21.3409C37.2586 21.6582 36.7176 22.0745 36.2325 22.5899C35.7848 23.1054 35.449 23.7003 35.2251 24.3743C34.5908 25.1673 34.0312 26.0397 33.5461 26.9914C33.0984 27.943 32.7253 28.8947 32.4268 29.8463C32.1283 30.798 31.9044 31.7298 31.7552 32.6418C31.5687 33.5538 31.4754 34.3865 31.4754 35.1399C31.4754 36.2106 31.5314 37.3605 31.6433 38.5897C31.7179 39.8189 31.9604 40.949 32.3709 41.9799C32.8186 43.0109 33.4715 43.8634 34.3296 44.5375C35.2251 45.2513 36.4377 45.6081 37.9675 45.6081C39.2734 45.6081 40.4673 45.3305 41.5493 44.7754C42.6687 44.26 43.6574 43.5263 44.5155 42.5747C45.411 41.623 46.1759 40.493 46.8101 39.1844C47.4444 37.8759 47.9482 36.4683 48.3213 34.9615C49.4406 34.565 50.6159 33.9701 51.8472 33.1771C53.0784 32.3841 54.2164 31.5712 55.2611 30.7385C55.6479 30.4302 55.9271 30.2068 56.1652 30.0115C55.1576 34.3789 53.2882 42.4732 53.2882 42.4732C53.1032 43.3247 53.0662 43.9633 53.1772 44.389C53.2882 44.8147 53.4547 45.0856 53.6767 45.2017C53.9358 45.3566 54.1948 45.4146 54.4538 45.3759C54.7498 45.3372 54.9903 45.2791 55.1754 45.2017L57.9505 43.9246C58.0245 43.6537 58.08 43.3634 58.117 43.0538C58.1541 42.7441 58.2095 42.4539 58.2836 42.1829L58.5056 41.2541C58.5056 41.2541 58.8953 39.6121 59.1058 38.806C59.635 36.7801 60.2305 35.0611 60.8922 33.6491C61.8543 31.6366 62.8164 30.0692 63.7784 28.9468C64.7405 27.8245 65.6101 27.0698 66.3871 26.6827C67.1642 26.2957 67.7192 26.1022 68.0523 26.1022C68.4963 26.1022 68.8293 26.2377 69.0513 26.5086C69.3103 26.7795 69.4398 27.2826 69.4398 28.018C69.4398 29.063 69.2919 30.3014 68.9958 31.7334C68.7368 33.1266 68.4223 34.5393 68.0523 35.9712C67.6822 37.3645 67.2937 38.661 66.8866 39.8608C66.5166 41.0606 66.2576 41.9314 66.1096 42.4732C65.8136 43.5956 65.7766 44.2923 65.9986 44.5632C66.2206 44.8728 66.7016 45.0082 67.4417 44.9695C67.7007 44.9308 67.9967 44.8728 68.3298 44.7953C68.9588 44.6793 69.6248 44.4277 70.3279 44.0406C70.883 40.5575 71.6417 37.6936 72.6037 35.4488C73.6026 33.1654 74.6015 31.3657 75.6011 30.0498C76.6369 28.6953 77.5804 27.747 78.4315 27.2053C79.3196 26.6634 79.9114 26.3925 80.2076 26.3925C80.8364 26.3925 81.2804 26.6634 81.5397 27.2053C81.799 27.747 81.8175 28.5211 81.5951 29.5274C81.4104 30.3401 81.188 31.2689 80.9294 32.3139C80.6701 33.3589 80.4108 34.4426 80.1522 35.5649C79.8929 36.6486 79.6712 37.7129 79.4858 38.7578C79.338 39.8028 79.2641 40.7316 79.2641 41.5443C79.2641 42.3571 79.3934 43.0344 79.6528 43.5762C79.9114 44.0794 80.2446 44.4858 80.6517 44.7953C81.0957 45.105 81.5582 45.3179 82.0392 45.4339C82.5571 45.5501 83.075 45.6081 83.5936 45.6081C85.1474 45.6081 86.6457 45.1244 88.0894 44.1568C89.5323 43.1892 90.8828 41.9894 92.141 40.5575C92.6712 40.0175 93.2699 39.3143 93.693 38.8013C93.758 39.0991 93.8356 39.3852 93.9259 39.6597C94.4203 41.0477 95.0666 42.1779 95.8656 43.0503C96.6645 43.9228 97.5394 44.5572 98.4903 44.9538C99.4791 45.39 100.392 45.6081 101.229 45.6081C102.826 45.6081 104.462 45.2116 106.136 44.4184C107.847 43.6253 109.502 42.5943 111.099 41.3253C112.735 40.0166 114.275 38.5494 115.721 36.9235Z" fill="#5F5E5E"/>
</svg>
